{
  "accessors": [
    {
      "bufferView": 2,
      "componentType": 5126,
      "count": 9,
      "max": [729.83734130859375, 787.36279296875, -3.8739149570465088],
      "min": [-528.78814697265625, -202.68576049804688, -3.8739149570465088],
      "type": "VEC3"
    },
    {
      "bufferView": 2,
      "byteOffset": 108,
      "componentType": 5126,
      "count": 9,
      "max": [0, 0, 1],
      "min": [0, 0, 1],
      "type": "VEC3"
    },
    {
      "bufferView": 3,
      "componentType": 5126,
      "count": 9,
      "max": [1, 1, 1, 1],
      "min": [1, 1, 1, 1],
      "type": "VEC4"
    },
    {
      "bufferView": 0,
      "componentType": 5125,
      "count": 24,
      "max": [8],
      "min": [0],
      "type": "SCALAR"
    },
    {
      "bufferView": 2,
      "byteOffset": 216,
      "componentType": 5126,
      "count": 60,
      "max": [47.1259765625, -0.54379349946975708, 81.926239013671875],
      "min": [-47.125980377197266, -1.9935047626495361, -2.3336677551269531],
      "type": "VEC3"
    },
    {
      "bufferView": 2,
      "byteOffset": 936,
      "componentType": 5126,
      "count": 60,
      "max": [1, 1, 1],
      "min": [-1, -1, -1],
      "type": "VEC3"
    },
    {
      "bufferView": 3,
      "byteOffset": 144,
      "componentType": 5126,
      "count": 60,
      "max": [1, 1, 1.4915618749000714e-6, 1],
      "min": [-1, -1, -6.0433176258811727e-6, 1],
      "type": "VEC4"
    },
    {
      "bufferView": 3,
      "byteOffset": 1104,
      "componentType": 5126,
      "count": 60,
      "max": [1, 1, 1, 1],
      "min": [1, 1, 1, 1],
      "type": "VEC4"
    },
    {
      "bufferView": 1,
      "componentType": 5126,
      "count": 60,
      "max": [0.99950051307678223, 0.99950045347213745],
      "min": [0.00049948692321777344, 0.00049954652786254883],
      "type": "VEC2"
    },
    {
      "bufferView": 0,
      "byteOffset": 96,
      "componentType": 5125,
      "count": 96,
      "max": [59],
      "min": [0],
      "type": "SCALAR"
    },
    {
      "bufferView": 2,
      "byteOffset": 1656,
      "componentType": 5126,
      "count": 134,
      "max": [45.703575134277344, 3.9689242839813232, 80.80621337890625],
      "min": [-45.703575134277344, -2.3168461322784424, -1.2136344909667969],
      "type": "VEC3"
    },
    {
      "bufferView": 2,
      "byteOffset": 3264,
      "componentType": 5126,
      "count": 134,
      "max": [1, 1, 1],
      "min": [-1, -1, -1],
      "type": "VEC3"
    },
    {
      "bufferView": 3,
      "byteOffset": 2064,
      "componentType": 5126,
      "count": 134,
      "max": [1, 1, 6.2870285546523519e-6, 1],
      "min": [-1, -1, -6.072711585147772e-6, 1],
      "type": "VEC4"
    },
    {
      "bufferView": 3,
      "byteOffset": 4208,
      "componentType": 5126,
      "count": 134,
      "max": [1, 1, 1, 1],
      "min": [1, 1, 1, 1],
      "type": "VEC4"
    },
    {
      "bufferView": 1,
      "byteOffset": 480,
      "componentType": 5126,
      "count": 134,
      "max": [0.9995003342628479, 0.99950045347213745],
      "min": [0.00049954652786254883, 0.00049954652786254883],
      "type": "VEC2"
    },
    {
      "bufferView": 0,
      "byteOffset": 480,
      "componentType": 5125,
      "count": 228,
      "max": [133],
      "min": [0],
      "type": "SCALAR"
    },
    {
      "bufferView": 2,
      "byteOffset": 4872,
      "componentType": 5126,
      "count": 24,
      "max": [0.7637786865234375, 0.089190587401390076, 78.485733032226562],
      "min": [-41.120658874511719, -1.4734200239181519, 2.027374267578125],
      "type": "VEC3"
    },
    {
      "bufferView": 2,
      "byteOffset": 5160,
      "componentType": 5126,
      "count": 24,
      "max": [1, 1, 1],
      "min": [-1, -1, -1],
      "type": "VEC3"
    },
    {
      "bufferView": 3,
      "byteOffset": 6352,
      "componentType": 5126,
      "count": 24,
      "max": [1, 1, 0, 1],
      "min": [-1, -1, 0, 1],
      "type": "VEC4"
    },
    {
      "bufferView": 3,
      "byteOffset": 6736,
      "componentType": 5126,
      "count": 24,
      "max": [1, 1, 1, 1],
      "min": [1, 1, 1, 1],
      "type": "VEC4"
    },
    {
      "bufferView": 1,
      "byteOffset": 1552,
      "componentType": 5126,
      "count": 24,
      "max": [0.97784781455993652, 0.98920524120330811],
      "min": [0.022152155637741089, 0.014725357294082642],
      "type": "VEC2"
    },
    {
      "bufferView": 0,
      "byteOffset": 1392,
      "componentType": 5125,
      "count": 36,
      "max": [23],
      "min": [0],
      "type": "SCALAR"
    },
    {
      "bufferView": 2,
      "byteOffset": 5448,
      "componentType": 5126,
      "count": 334,
      "max": [1.7516555786132812, -0.67351514101028442, 79.293502807617188],
      "min": [-43.826679229736328, -3.9689223766326904, 0.91120529174804688],
      "type": "VEC3"
    },
    {
      "bufferView": 2,
      "byteOffset": 9456,
      "componentType": 5126,
      "count": 334,
      "max": [1, 1, 1],
      "min": [-1, -1, -1],
      "type": "VEC3"
    },
    {
      "bufferView": 3,
      "byteOffset": 7120,
      "componentType": 5126,
      "count": 334,
      "max": [1, 1, 5.5091266403906047e-5, 1],
      "min": [-1, -1, -1.2895682630187366e-5, 1],
      "type": "VEC4"
    },
    {
      "bufferView": 3,
      "byteOffset": 12464,
      "componentType": 5126,
      "count": 334,
      "max": [1, 1, 1, 1],
      "min": [1, 1, 1, 1],
      "type": "VEC4"
    },
    {
      "bufferView": 1,
      "byteOffset": 1744,
      "componentType": 5126,
      "count": 334,
      "max": [0.99950045347213745, 0.99950051307678223],
      "min": [0.00049954652786254883, 0.00049951672554016113],
      "type": "VEC2"
    },
    {
      "bufferView": 0,
      "byteOffset": 1536,
      "componentType": 5125,
      "count": 561,
      "max": [333],
      "min": [0],
      "type": "SCALAR"
    },
    {
      "bufferView": 2,
      "byteOffset": 13464,
      "componentType": 5126,
      "count": 346,
      "max": [1.7516555786132812, 2.6777079105377197, 79.293502807617188],
      "min": [-43.826679229736328, -2.2206571102142334, 0.91120529174804688],
      "type": "VEC3"
    },
    {
      "bufferView": 2,
      "byteOffset": 17616,
      "componentType": 5126,
      "count": 346,
      "max": [1, 1, 1],
      "min": [-1, -1, -1],
      "type": "VEC3"
    },
    {
      "bufferView": 3,
      "byteOffset": 17808,
      "componentType": 5126,
      "count": 346,
      "max": [1, 1, 3.6727506085298955e-5, 1],
      "min": [-1, -1, -1.1634286238404457e-5, 1],
      "type": "VEC4"
    },
    {
      "bufferView": 3,
      "byteOffset": 23344,
      "componentType": 5126,
      "count": 346,
      "max": [1, 1, 1, 1],
      "min": [1, 1, 1, 1],
      "type": "VEC4"
    },
    {
      "bufferView": 1,
      "byteOffset": 4416,
      "componentType": 5126,
      "count": 346,
      "max": [0.99950045347213745, 0.99950051307678223],
      "min": [0.00049954652786254883, 0.00049951672554016113],
      "type": "VEC2"
    },
    {
      "bufferView": 0,
      "byteOffset": 3780,
      "componentType": 5125,
      "count": 567,
      "max": [345],
      "min": [0],
      "type": "SCALAR"
    },
    {
      "bufferView": 2,
      "byteOffset": 21768,
      "componentType": 5126,
      "count": 24,
      "max": [34.625743865966797, 3.1211929321289062, 80.819404602050781],
      "min": [-7.7062263488769531, 1.5585814714431763, 4.3610420227050781],
      "type": "VEC3"
    },
    {
      "bufferView": 2,
      "byteOffset": 22056,
      "componentType": 5126,
      "count": 24,
      "max": [1, 1, 1],
      "min": [-1, -1, -1],
      "type": "VEC3"
    },
    {
      "bufferView": 3,
      "byteOffset": 28880,
      "componentType": 5126,
      "count": 24,
      "max": [0.57757532596588135, 1, 0.99998390674591064, 1],
      "min": [-1, -1, 0, -1],
      "type": "VEC4"
    },
    {
      "bufferView": 3,
      "byteOffset": 29264,
      "componentType": 5126,
      "count": 24,
      "max": [1, 1, 1, 1],
      "min": [1, 1, 1, 1],
      "type": "VEC4"
    },
    {
      "bufferView": 1,
      "byteOffset": 7184,
      "componentType": 5126,
      "count": 24,
      "max": [0.97734957933425903, 0.98920536041259766],
      "min": [0.022650390863418579, 0.014725327491760254],
      "type": "VEC2"
    },
    {
      "bufferView": 0,
      "byteOffset": 6048,
      "componentType": 5125,
      "count": 36,
      "max": [23],
      "min": [0],
      "type": "SCALAR"
    },
    {
      "bufferView": 2,
      "byteOffset": 22344,
      "componentType": 5126,
      "count": 48,
      "max": [35.613613128662109, 3.7793619632720947, 81.627166748046875],
      "min": [-8.9391250610351562, 2.3296537399291992, 3.2448768615722656],
      "type": "VEC3"
    },
    {
      "bufferView": 2,
      "byteOffset": 22920,
      "componentType": 5126,
      "count": 48,
      "max": [1, 1, 1],
      "min": [-1, -1, -1],
      "type": "VEC3"
    },
    {
      "bufferView": 3,
      "byteOffset": 29648,
      "componentType": 5126,
      "count": 48,
      "max": [0.99712079763412476, 1, 1, 1],
      "min": [-1, -1, -0.99999982118606567, -1],
      "type": "VEC4"
    },
    {
      "bufferView": 3,
      "byteOffset": 30416,
      "componentType": 5126,
      "count": 48,
      "max": [1, 1, 1, 1],
      "min": [1, 1, 1, 1],
      "type": "VEC4"
    },
    {
      "bufferView": 1,
      "byteOffset": 7376,
      "componentType": 5126,
      "count": 48,
      "max": [0.99950045347213745, 0.99950045347213745],
      "min": [0.00049951672554016113, 0.00049954652786254883],
      "type": "VEC2"
    },
    {
      "bufferView": 0,
      "byteOffset": 6192,
      "componentType": 5125,
      "count": 96,
      "max": [47],
      "min": [0],
      "type": "SCALAR"
    },
    {
      "bufferView": 2,
      "byteOffset": 23496,
      "componentType": 5126,
      "count": 48,
      "max": [35.613613128662109, 2.3584892749786377, 81.627166748046875],
      "min": [-8.9391250610351562, 0.90877819061279297, 3.2448768615722656],
      "type": "VEC3"
    },
    {
      "bufferView": 2,
      "byteOffset": 24072,
      "componentType": 5126,
      "count": 48,
      "max": [1, 1, 1],
      "min": [-1, -1, -1],
      "type": "VEC3"
    },
    {
      "bufferView": 3,
      "byteOffset": 31184,
      "componentType": 5126,
      "count": 48,
      "max": [0, 1, 1, 1],
      "min": [-1, -1, -0.99999994039535522, -1],
      "type": "VEC4"
    },
    {
      "bufferView": 3,
      "byteOffset": 31952,
      "componentType": 5126,
      "count": 48,
      "max": [1, 1, 1, 1],
      "min": [1, 1, 1, 1],
      "type": "VEC4"
    },
    {
      "bufferView": 1,
      "byteOffset": 7760,
      "componentType": 5126,
      "count": 48,
      "max": [0.99950051307678223, 0.99950045347213745],
      "min": [0.00049951672554016113, 0.00049948692321777344],
      "type": "VEC2"
    },
    {
      "bufferView": 0,
      "byteOffset": 6576,
      "componentType": 5125,
      "count": 96,
      "max": [47],
      "min": [0],
      "type": "SCALAR"
    }
  ],
  "asset": {
    "extras": {
      "author": "James (https://sketchfab.com/james)",
      "license": "CC-BY-4.0 (http://creativecommons.org/licenses/by/4.0/)",
      "source": "https://sketchfab.com/3d-models/sliding-window-009378cc3f33453892386c6ba34a9cf7",
      "title": "Sliding Window"
    },
    "generator": "Sketchfab-5.84.2",
    "version": "2.0"
  },
  "bufferViews": [
    {
      "buffer": 0,
      "byteLength": 6960,
      "byteOffset": 0,
      "name": "floatBufferViews",
      "target": 34963
    },
    {
      "buffer": 0,
      "byteLength": 8144,
      "byteOffset": 6960,
      "byteStride": 8,
      "name": "floatBufferViews",
      "target": 34962
    },
    {
      "buffer": 0,
      "byteLength": 24648,
      "byteOffset": 15104,
      "byteStride": 12,
      "name": "floatBufferViews",
      "target": 34962
    },
    {
      "buffer": 0,
      "byteLength": 32720,
      "byteOffset": 39752,
      "byteStride": 16,
      "name": "floatBufferViews",
      "target": 34962
    }
  ],
  "buffers": [
    {
      "byteLength": 72472,
      "uri": "scene.bin"
    }
  ],
  "materials": [
    {
      "doubleSided": true,
      "emissiveFactor": [0, 0, 0],
      "name": "Material_57",
      "pbrMetallicRoughness": {
        "baseColorFactor": [0.584314, 0.584314, 0.584314, 1],
        "metallicFactor": 0,
        "roughnessFactor": 0.59999999999999998
      }
    },
    {
      "doubleSided": true,
      "emissiveFactor": [0, 0, 0],
      "name": "standard_alumini",
      "pbrMetallicRoughness": {
        "baseColorFactor": [
          0.50980400000000003,
          0.50980400000000003,
          0.50980400000000003,
          1
        ],
        "metallicFactor": 0,
        "roughnessFactor": 0.59999999999999998
      }
    },
    {
      "alphaMode": "BLEND",
      "doubleSided": true,
      "emissiveFactor": [0, 0, 0],
      "name": "5_-_Default",
      "pbrMetallicRoughness": {
        "baseColorFactor": [
          0.58823499999999995,
          0.58823499999999995,
          0.58823499999999995,
          0.14000000000000001
        ],
        "metallicFactor": 0,
        "roughnessFactor": 0.59999999999999998
      }
    },
    {
      "doubleSided": true,
      "emissiveFactor": [0, 0, 0],
      "name": "2_-_Default",
      "pbrMetallicRoughness": {
        "baseColorFactor": [0.231373, 0.231373, 0.231373, 1],
        "metallicFactor": 0,
        "roughnessFactor": 0.59999999999999998
      }
    },
    {
      "doubleSided": true,
      "emissiveFactor": [0, 0, 0],
      "name": "3_-_Default",
      "pbrMetallicRoughness": {
        "baseColorFactor": [
          0.44046417290000001,
          0.44046417290000001,
          0.44046417290000001,
          1
        ],
        "metallicFactor": 0,
        "roughnessFactor": 0.59999999999999998
      }
    },
    {
      "doubleSided": true,
      "emissiveFactor": [0, 0, 0],
      "name": "Material_46",
      "pbrMetallicRoughness": {
        "baseColorFactor": [0.584314, 0.584314, 0.584314, 1],
        "metallicFactor": 0,
        "roughnessFactor": 0.59999999999999998
      }
    },
    {
      "alphaMode": "BLEND",
      "doubleSided": true,
      "emissiveFactor": [0, 0, 0],
      "name": "Material_35",
      "pbrMetallicRoughness": {
        "baseColorFactor": [
          0.68235299999999999,
          0.68235299999999999,
          0.68235299999999999,
          0
        ],
        "metallicFactor": 0,
        "roughnessFactor": 0.59999999999999998
      }
    }
  ],
  "meshes": [
    {
      "primitives": [
        {
          "attributes": {
            "COLOR_0": 2,
            "NORMAL": 1,
            "POSITION": 0
          },
          "indices": 3,
          "material": 6,
          "mode": 4
        }
      ]
    },
    {
      "primitives": [
        {
          "attributes": {
            "COLOR_0": 7,
            "NORMAL": 5,
            "POSITION": 4,
            "TANGENT": 6,
            "TEXCOORD_0": 8
          },
          "indices": 9,
          "material": 3,
          "mode": 4
        }
      ]
    },
    {
      "primitives": [
        {
          "attributes": {
            "COLOR_0": 13,
            "NORMAL": 11,
            "POSITION": 10,
            "TANGENT": 12,
            "TEXCOORD_0": 14
          },
          "indices": 15,
          "material": 4,
          "mode": 4
        }
      ]
    },
    {
      "primitives": [
        {
          "attributes": {
            "COLOR_0": 19,
            "NORMAL": 17,
            "POSITION": 16,
            "TANGENT": 18,
            "TEXCOORD_0": 20
          },
          "indices": 21,
          "material": 2,
          "mode": 4
        }
      ]
    },
    {
      "primitives": [
        {
          "attributes": {
            "COLOR_0": 25,
            "NORMAL": 23,
            "POSITION": 22,
            "TANGENT": 24,
            "TEXCOORD_0": 26
          },
          "indices": 27,
          "material": 1,
          "mode": 4
        }
      ]
    },
    {
      "primitives": [
        {
          "attributes": {
            "COLOR_0": 31,
            "NORMAL": 29,
            "POSITION": 28,
            "TANGENT": 30,
            "TEXCOORD_0": 32
          },
          "indices": 33,
          "material": 5,
          "mode": 4
        }
      ]
    },
    {
      "primitives": [
        {
          "attributes": {
            "COLOR_0": 37,
            "NORMAL": 35,
            "POSITION": 34,
            "TANGENT": 36,
            "TEXCOORD_0": 38
          },
          "indices": 39,
          "material": 2,
          "mode": 4
        }
      ]
    },
    {
      "primitives": [
        {
          "attributes": {
            "COLOR_0": 43,
            "NORMAL": 41,
            "POSITION": 40,
            "TANGENT": 42,
            "TEXCOORD_0": 44
          },
          "indices": 45,
          "material": 0,
          "mode": 4
        }
      ]
    },
    {
      "primitives": [
        {
          "attributes": {
            "COLOR_0": 49,
            "NORMAL": 47,
            "POSITION": 46,
            "TANGENT": 48,
            "TEXCOORD_0": 50
          },
          "indices": 51,
          "material": 1,
          "mode": 4
        }
      ]
    }
  ],
  "nodes": [
    {
      "children": [1],
      "name": "RootNode (gltf orientation matrix)",
      "rotation": [-0.70710678118654746, -0, -0, 0.70710678118654757]
    },
    {
      "children": [2],
      "name": "RootNode (model correction matrix)"
    },
    {
      "children": [3, 6, 15],
      "name": "window43.3DS"
    },
    {
      "children": [4],
      "matrix": [
        1,
        0,
        0,
        0,
        0,
        1,
        0,
        0,
        0,
        0,
        1,
        0,
        100.52458190917969,
        292.33853149414062,
        -3.8739149570465088,
        1
      ],
      "name": "Plane01"
    },
    {
      "children": [5],
      "matrix": [
        1,
        0,
        0,
        0,
        0,
        1,
        0,
        0,
        0,
        0,
        1,
        0,
        -100.52458190917969,
        -292.33853149414062,
        3.8739149570465088,
        1
      ],
      "name": "3DSMeshMatrix"
    },
    {
      "mesh": 0,
      "name": ""
    },
    {
      "children": [7, 11],
      "matrix": [
        1,
        0,
        0,
        0,
        0,
        1,
        0,
        0,
        0,
        0,
        1,
        0,
        -21.037513732910156,
        0.0225067138671875,
        38.464523315429688,
        1
      ],
      "name": "frame4w"
    },
    {
      "children": [8],
      "matrix": [
        1,
        0,
        0,
        0,
        0,
        1,
        0,
        0,
        0,
        0,
        1,
        0,
        21.037513732910156,
        0.8035309910774231,
        -0.30606460571289062,
        1
      ],
      "name": "frame430"
    },
    {
      "children": [9, 10],
      "matrix": [
        1,
        0,
        0,
        0,
        0,
        1,
        0,
        0,
        0,
        0,
        1,
        0,
        -0,
        -0.8260377049446106,
        -38.158458709716797,
        1
      ],
      "name": "3DSMeshMatrix"
    },
    {
      "mesh": 1,
      "name": ""
    },
    {
      "mesh": 2,
      "name": ""
    },
    {
      "children": [12, 13, 14],
      "matrix": [
        1,
        0,
        0,
        0,
        0,
        1,
        0,
        0,
        0,
        0,
        1,
        0,
        21.037513732910156,
        -0.0225067138671875,
        -38.464523315429688,
        1
      ],
      "name": "3DSMeshMatrix"
    },
    {
      "mesh": 3,
      "name": ""
    },
    {
      "mesh": 4,
      "name": ""
    },
    {
      "mesh": 5,
      "name": ""
    },
    {
      "children": [16],
      "matrix": [
        1,
        0,
        0,
        0,
        0,
        1,
        0,
        0,
        0,
        0,
        1,
        0,
        33.861965179443359,
        0.90877914428710938,
        40.492122650146484,
        1
      ],
      "name": "frame43"
    },
    {
      "children": [17, 18, 19],
      "matrix": [
        1,
        0,
        0,
        0,
        0,
        1,
        0,
        0,
        0,
        0,
        1,
        0,
        -33.861965179443359,
        -0.90877914428710938,
        -40.492122650146484,
        1
      ],
      "name": "3DSMeshMatrix"
    },
    {
      "mesh": 6,
      "name": ""
    },
    {
      "mesh": 7,
      "name": ""
    },
    {
      "mesh": 8,
      "name": ""
    }
  ],
  "scene": 0,
  "scenes": [
    {
      "name": "OSG_Scene",
      "nodes": [0]
    }
  ]
}
